<svg width="1771" height="1406" viewBox="0 0 1771 1406" fill="none" xmlns="http://www.w3.org/2000/svg">
<rect width="1771" height="1406" fill="#EAEAEA"/>
<g clip-path="url(#clip0_0_1)">
<path d="M814.148 781.321C791.908 777.487 772.138 766.468 758.781 750.463C757.459 748.876 754.711 750.752 756.031 752.337C769.966 768.97 790.566 780.4 813.72 784.345C815.928 784.72 816.343 781.694 814.148 781.321V781.321Z" fill="#EAEAEA"/>
<path d="M731.833 630.462C728.739 633.175 724.922 635.174 720.726 636.279C716.529 637.384 712.084 637.562 707.79 636.795C705.589 636.396 705.176 639.423 707.362 639.819C712.111 640.647 717.02 640.446 721.659 639.234C726.299 638.022 730.528 635.835 733.977 632.865C734.329 632.609 734.557 632.245 734.613 631.848C734.669 631.451 734.55 631.05 734.28 630.727C733.994 630.41 733.577 630.204 733.118 630.155C732.66 630.105 732.198 630.216 731.833 630.462L731.833 630.462Z" fill="#EAEAEA"/>
<path d="M1374.52 1321.12V1350.73C1360.16 1366.78 1345.36 1382.51 1330.13 1397.92C1328.49 1399.6 1326.82 1401.25 1325.11 1402.94C1322.53 1405.57 1319.88 1408.18 1317.22 1410.78V1321.12H1374.52Z" fill="#CACACA"/>
<path d="M1206.4 1259.36C1193.73 1259.37 1181.59 1263.77 1172.63 1271.6C1163.68 1279.43 1158.64 1290.04 1158.62 1301.11V1361.19C1158.64 1372.26 1163.68 1382.87 1172.63 1390.69C1181.59 1398.52 1193.73 1402.92 1206.4 1402.94H1325.11C1326.82 1401.25 1328.49 1399.6 1330.13 1397.92C1345.36 1382.51 1360.16 1366.78 1374.52 1350.73C1375.47 1349.69 1376.41 1348.64 1377.32 1347.59C1385.54 1338.41 1393.61 1329.07 1401.54 1319.66C1407.72 1312.29 1413.86 1304.86 1419.86 1297.36C1419.9 1297.33 1419.94 1297.33 1419.94 1297.29C1429.97 1284.84 1439.75 1272.19 1449.28 1259.36H1206.4Z" fill="#DED9D9"/>
<path d="M1512.07 745.097C1504.77 742.896 1497.1 741.779 1489.38 741.793H1469.86C1462.75 741.797 1455.68 742.729 1448.88 744.557C1434.54 748.494 1422.02 756.322 1413.12 766.903C1404.22 777.484 1399.41 790.268 1399.39 803.399V1304.6C1399.39 1306.48 1399.5 1308.32 1399.68 1310.13C1400 1313.35 1400.62 1316.53 1401.54 1319.66C1407.72 1312.29 1413.86 1304.86 1419.86 1297.36C1419.9 1297.33 1419.94 1297.33 1419.94 1297.29C1429.97 1284.84 1439.75 1272.19 1449.28 1259.36C1454.41 1252.46 1459.5 1245.51 1464.48 1238.52C1500.47 1188.05 1532.35 1135.43 1559.88 1081.05V803.399C1559.87 790.537 1555.25 778.002 1546.68 767.548C1538.1 757.094 1526 749.244 1512.07 745.097Z" fill="#DDDBDB"/>
<path d="M795.375 891.307C802.435 901.326 813.698 908.537 826.759 911.401C839.819 914.264 853.643 912.552 865.28 906.632C867.62 905.394 869.839 903.989 871.913 902.431L1028.41 980.908L1021.61 900.35L874.043 838.178C866.014 831.13 855.535 826.609 844.249 825.325C832.963 824.04 821.509 826.064 811.681 831.08C800.432 836.982 792.326 846.548 789.148 857.672C785.97 868.797 787.979 880.569 794.734 890.399C794.943 890.704 795.157 891.006 795.375 891.307Z" fill="#FFB6B6"/>
<path d="M961.126 951.357L988.789 966.089L1113.03 1032.29C1121.18 1036.75 1130.26 1039.76 1139.75 1041.15C1149.23 1042.54 1158.94 1042.29 1168.32 1040.4C1177.69 1038.52 1186.55 1035.04 1194.38 1030.16C1202.22 1025.28 1208.88 1019.1 1213.98 1011.98L1214.02 1011.92C1223.22 998.676 1226.47 982.924 1223.16 967.706L1167.94 726.642C1165.9 717.179 1161.54 708.212 1155.17 700.354C1148.8 692.497 1140.56 685.934 1131.02 681.114C1121.48 676.295 1110.86 673.332 1099.89 672.429C1088.92 671.526 1077.86 672.704 1067.45 675.882C1049.97 681.251 1035.48 692.24 1026.94 706.612C1018.39 720.985 1016.44 737.661 1021.47 753.249L1079.21 924.328L990.703 888.271L961.126 951.357Z" fill="#823AE0"/>
<path d="M1470.55 1189.05C1470.51 1188.95 1470.44 1188.6 1470.33 1188.06L1470.22 1187.71C1469.97 1186.57 1469.68 1185.3 1469.35 1183.9C1461.93 1151.71 1452.4 1119.92 1440.81 1088.68C1433.94 1069.55 1424.84 1051.09 1413.65 1033.59C1413.28 1033.01 1412.88 1032.44 1412.48 1031.87L1411.14 1029.96L1399.83 1033.59L1399.39 1033.71L1227.49 1088.77L1177.78 1104.69L1176.22 1105.2L1167.75 1135.38L1048.89 1121.94L952.029 1110.98L924.214 1107.84C912.156 1106.46 899.906 1107.2 888.176 1110.01C876.447 1112.81 865.474 1117.62 855.895 1124.17C845.899 1130.94 837.545 1139.38 831.321 1149.01C825.098 1158.63 821.128 1169.24 819.644 1180.21C819.281 1182.63 819.063 1185.08 818.954 1187.49L810.555 1461.27V1461.62L814.445 1468.42L895.708 1610.88H952.029L985.261 1610.85H1012.28L956.101 1486.66L957.373 1484.97C962.659 1477.89 965.991 1469.84 967.108 1461.44C968.224 1453.04 967.095 1444.53 963.809 1436.58L970.136 1420.57C983.261 1387.5 977.044 1371.61 969.19 1351.53C962.136 1335.2 957.992 1318.02 956.901 1300.6L955.592 1277.95C988.57 1283 1019.29 1288.62 1048.89 1294.28C1058.78 1296.15 1068.57 1298.05 1078.27 1299.96C1105.86 1305.33 1132.52 1310.51 1158.62 1314.83C1211.49 1323.63 1262.14 1329 1314.17 1325.67C1315.19 1325.6 1316.2 1325.54 1317.22 1325.44C1329.87 1324.55 1342.6 1323.12 1355.47 1321.12C1362.71 1319.98 1369.98 1318.68 1377.32 1317.15C1379.36 1316.71 1381.43 1316.26 1383.47 1315.82C1389.12 1314.51 1394.57 1312.6 1399.68 1310.13C1406.96 1306.58 1413.73 1302.29 1419.86 1297.36C1419.9 1297.33 1419.94 1297.33 1419.94 1297.29C1429.97 1284.84 1439.75 1272.19 1449.28 1259.36C1454.4 1252.46 1459.5 1245.51 1464.48 1238.52C1471.75 1221.07 1474.51 1203.47 1470.55 1189.05Z" fill="#2F2E41"/>
<path d="M1471.75 1137.61C1471.2 1135.57 1470.51 1133.51 1469.78 1131.51C1464.01 1116.35 1457.29 1101.48 1449.64 1086.96C1441.06 1070.44 1430.77 1052.75 1418.52 1033.59C1412.59 1024.31 1406.22 1014.66 1399.39 1004.64C1395.98 999.622 1392.42 994.507 1388.74 989.297C1388.6 989.057 1388.44 988.824 1388.27 988.598L1387.21 987.072L1217.12 1006.96L1153.79 1014.36L1150 1041.94L1149.1 1048.77C1149.06 1048.77 1149.06 1048.77 1149.1 1048.81L1146.55 1067.42V1067.46L1143.17 1092.05L1142.88 1092.02L1048.89 1081.37L952.028 1070.41L899.998 1064.53C887.94 1063.16 875.69 1063.9 863.961 1066.7C852.232 1069.5 841.259 1074.32 831.679 1080.86C821.683 1087.64 813.33 1096.08 807.106 1105.7C800.882 1115.32 796.913 1125.93 795.429 1136.91C795.102 1139.13 794.884 1141.42 794.775 1143.68L745.69 1245.32C716.318 1306.1 697.612 1370.41 690.205 1436.07L654.21 1536.63L659.336 1537.05L735.618 1543.24L755.761 1544.89L800.12 1488.31C805.173 1481.86 809.973 1475.22 814.445 1468.42C821.808 1457.31 828.354 1445.81 834.043 1433.98L929.995 1234.45C937.412 1235.56 944.757 1236.62 952.028 1237.63C985.661 1242.39 1017.95 1246.28 1048.89 1249.29C1149.5 1259.1 1236.61 1259.87 1314.17 1251.54C1335.95 1249.22 1357 1246.17 1377.32 1242.39C1384.78 1241.03 1392.13 1239.55 1399.39 1237.98C1401.1 1237.63 1402.77 1237.28 1404.45 1236.9C1419.47 1233.51 1433.29 1226.88 1444.63 1217.63C1455.96 1208.37 1464.46 1196.77 1469.35 1183.9C1475.18 1168.98 1476.01 1152.92 1471.75 1137.61V1137.61Z" fill="#2F2E41"/>
<path d="M1110.06 537.533C1175.04 537.533 1227.72 490.478 1227.72 432.433C1227.72 374.387 1175.04 327.332 1110.06 327.332C1045.09 327.332 992.41 374.387 992.41 432.433C992.41 490.478 1045.09 537.533 1110.06 537.533Z" fill="#FFB6B6"/>
<path d="M1389.43 992.823C1389.25 991.648 1389.03 990.472 1388.74 989.297C1385.94 976.397 1378.67 963.752 1371.65 951.488C1364.96 939.796 1358.6 928.739 1355.98 917.746C1353.4 906.912 1354.93 896.046 1356.42 885.561C1358.02 874.187 1359.69 862.431 1355.94 851.025C1336.95 792.774 1310.86 736.47 1278.14 683.078C1269.88 659.601 1254.05 638.703 1232.54 622.891C1211.03 607.078 1184.76 597.021 1156.88 593.926C1160.13 588.614 1161.49 582.571 1160.77 576.579C1160.31 572.707 1158.98 568.952 1156.85 565.532C1154.72 562.113 1151.84 559.096 1148.37 556.658C1145.03 554.31 1141.2 552.562 1137.09 551.515C1132.97 550.468 1128.67 550.142 1124.41 550.557L1069.72 555.927C1060.96 556.889 1052.98 560.836 1047.52 566.911C1042.07 572.986 1039.58 580.696 1040.6 588.366C1040.91 590.727 1041.52 593.051 1042.42 595.292C991.66 651.783 965.591 703.254 963.191 751.928V751.96C962.9 757.582 962.936 763.212 963.3 768.831C964.45 787.002 968.969 804.89 976.681 821.795C985.785 841.325 997.975 859.644 1012.89 876.22C1015.95 879.588 1019.11 882.892 1022.38 886.133C1025.44 889.31 1028.86 892.646 1032.64 896.141L1042.2 909.231L1051.11 921.464L1098.74 1017.51L1122.99 1016.81L1126.37 1037.94L1127.17 1042.86L1142.88 1092.02L1144.04 1095.7L1165.53 1086.77L1293.73 1033.59L1389.58 993.808L1389.43 992.823Z" fill="#823AE0"/>
<path opacity="0.2" d="M978.119 821.286C989.052 844.683 1004.42 866.303 1023.58 885.236C1026.86 888.659 1030.32 892.023 1033.95 895.392L1052.56 920.91C1121.17 875.973 1176.75 699.039 1176.75 699.039L1099.34 685.881L978.119 821.286Z" fill="black"/>
<path d="M931.255 547.352C938.034 557.526 940.002 569.61 936.74 581.033C933.478 592.456 925.244 602.315 913.79 608.514C911.439 609.742 908.976 610.798 906.426 611.671L911.905 769.27L833.803 726.308L840.573 583.235C837.25 573.714 837.628 563.5 841.646 554.186C845.665 544.872 853.099 536.983 862.789 531.75C873.989 525.829 887.423 524.039 900.135 526.773C912.846 529.507 923.794 536.542 930.57 546.33C930.804 546.668 931.032 547.008 931.255 547.352Z" fill="#FFB6B6"/>
<path d="M918.77 709.781L832.881 720.453L836.574 875.876C836.788 886.963 840.243 897.819 846.611 907.411C852.978 917.003 862.047 925.013 872.956 930.679V930.679C886.282 937.531 901.796 940.411 917.159 938.887C932.522 937.363 946.902 931.516 958.131 922.229L1160.91 751.795C1175.17 739.968 1183.71 723.814 1184.77 706.654C1185.82 689.494 1179.31 672.634 1166.57 659.541C1154.09 646.633 1136.26 638.585 1116.99 637.168C1097.71 635.752 1078.59 641.082 1063.82 651.988C1063.24 652.414 1062.67 652.849 1062.11 653.291C1060.1 654.856 1058.2 656.515 1056.4 658.26L922.503 792.858L918.77 709.781Z" fill="#823AE0"/>
<path d="M1424.89 386.851C1404.89 366.472 1395.38 339.434 1379.4 316.292C1363.41 293.151 1335.59 272.439 1306.2 277.824C1285.94 281.537 1270.28 297.159 1262.35 314.577C1254.43 331.994 1252.94 351.202 1251.55 370.02C1252.04 331.349 1222.89 293.861 1182.72 281.522C1142.56 269.183 1094.5 282.947 1069.26 314.013C1058.25 305.094 1043.88 300.015 1028.86 299.74C1013.85 299.464 999.245 304.011 987.814 312.519C965.241 330.149 960.246 363.703 976.846 386.19C993.447 408.677 1029.4 417.054 1055.78 404.583L1065.11 412.08C1059.86 428.125 1070.04 447.078 1087.15 453.118C1101.03 458.017 1120.62 457.201 1125.82 469.928C1129.45 478.82 1122.66 488.311 1115.45 495.144C1108.23 501.977 1099.67 509.034 1098.8 518.489C1097.49 532.756 1114.36 542.75 1129.7 545.76C1166.68 553.019 1207.72 538.053 1229.03 509.534C1229.44 508.984 1229.89 508.433 1230.37 507.882C1242.33 494.518 1251.05 479.163 1255.99 462.757C1260.93 446.35 1261.98 429.236 1259.1 412.459C1257.9 405.868 1259.11 400.965 1264.31 399.404C1286.79 392.656 1349.77 406.818 1368.83 419.617C1387.89 432.416 1403.15 449.354 1421.51 462.979C1439.87 476.604 1463.27 487.113 1486.58 483.403C1505.25 480.432 1521.14 468.587 1531.82 454.3C1542.5 440.013 1548.65 423.36 1554.16 406.809C1512.87 427.651 1456.37 418.927 1424.89 386.851Z" fill="#2F2E41"/>
<path d="M1048.88 1013.34V1617.64C1035.71 1625.55 1022.38 1633.25 1008.88 1640.74V1053.4C1008.88 1036.37 1002.34 1022.55 994.301 1022.52H388.955C380.883 1022.55 374.375 1036.37 374.339 1053.4V1833.27C366.267 1833.97 358.195 1834.64 350.123 1835.21C346.778 1835.47 343.397 1835.69 340.052 1835.91C338.125 1832.8 336.234 1829.65 334.344 1826.48V1013.34C334.344 1008.63 334.562 1003.9 334.925 999.229C338.197 959.577 354.45 930.601 373.466 930.538H1009.75C1012.06 930.551 1014.33 930.972 1016.44 931.777C1032.37 937.686 1044.95 963.612 1048.11 997.131C1048.62 1002.47 1048.91 1007.9 1048.88 1013.34Z" fill="#E0DCDC"/>
<path d="M577.368 741.652L535.261 903.546L508.355 929.301H488.943L568.948 634.946L572.903 684.952V684.987L577.368 741.652Z" fill="#EAEAEA"/>
<path d="M780.013 907.103L532.988 905.736L511.063 905.609L495.429 905.514L477.213 905.419H477.067C474.425 905.423 471.891 906.336 470.013 907.96L439.254 934.839C438.573 935.426 438.018 936.115 437.617 936.873C437.426 937.087 437.267 937.322 437.145 937.572C436.479 938.923 436.204 940.397 436.344 941.864C436.483 943.33 437.034 944.744 437.946 945.981C438.858 947.218 440.105 948.239 441.576 948.956C443.047 949.672 444.696 950.062 446.38 950.09H766.378C768.298 950.084 770.178 949.603 771.799 948.704C773.42 947.804 774.717 946.523 775.541 945.007L778.049 940.241L783.212 930.55L789.066 919.621C789.691 918.458 790.014 917.188 790.011 915.903C789.997 913.584 788.942 911.362 787.072 909.716C785.202 908.07 782.667 907.132 780.013 907.103V907.103Z" fill="#EAEAEA"/>
<path opacity="0.17" d="M778.049 940.233L775.523 945.016C774.701 946.528 773.407 947.807 771.791 948.705C770.175 949.603 768.301 950.085 766.385 950.094H446.375C444.692 950.067 443.042 949.679 441.572 948.963C440.102 948.247 438.856 947.226 437.944 945.989C437.033 944.752 436.484 943.339 436.346 941.873C436.208 940.407 436.485 938.934 437.153 937.584C437.266 937.332 437.423 937.096 437.617 936.885L778.049 940.233Z" fill="black"/>
<path opacity="0.17" d="M572.903 684.952V684.987L504.395 929.301H488.943L568.948 634.946L572.903 684.952Z" fill="black"/>
<path d="M656.973 729.72L560.003 85.0344C559.648 82.6181 558.209 80.4238 556.004 78.9341L489.248 5.92215L483.249 1.88705C481.026 0.416777 478.233 -0.233349 475.468 0.0761186L465.432 1.25167C462.665 1.56347 460.152 2.82317 458.448 4.75368C456.743 6.6842 455.986 9.12737 456.343 11.5458V11.5458L556.84 679.52V679.552L562.984 720.41L570.293 768.926V768.99L581.637 844.48C581.817 845.774 582.317 847.017 583.102 848.125C583.887 849.234 584.937 850.18 586.182 850.898C587.404 851.634 588.792 852.133 590.253 852.363C591.714 852.593 593.214 852.549 594.653 852.232L601.016 850.835C603.454 850.286 605.591 849.003 607.052 847.212L609.888 843.686L611.197 842.034L655.119 736.233C656.66 734.346 657.323 732.018 656.973 729.72V729.72Z" fill="#D4D1D1"/>
<path opacity="0.17" d="M489.231 5.92506L611.208 842.048L609.883 843.684L607.057 847.201C605.598 848.995 603.459 850.279 601.02 850.826L594.648 852.225C593.205 852.538 591.704 852.581 590.241 852.351C588.778 852.122 587.387 851.626 586.159 850.894C584.931 850.163 583.893 849.214 583.113 848.109C582.334 847.003 581.829 845.766 581.634 844.479L456.358 11.5559C455.995 9.13728 456.746 6.69173 458.446 4.75679C460.146 2.82185 462.656 1.55586 465.423 1.23712L475.484 0.0816479C476.849 -0.0794929 478.237 -0.00159762 479.568 0.310765C480.898 0.623128 482.144 1.16368 483.233 1.90101L489.231 5.92506Z" fill="black"/>
<path d="M492.826 29.8361L557.556 110.572L634.493 622.104L592.781 694.414L492.826 29.8361Z" fill="#823AE0"/>
<path d="M1469.93 1061.17C1469.93 1066.75 1467.99 1072.21 1464.37 1076.82C1460.75 1081.42 1455.61 1084.96 1449.64 1086.96C1446.81 1087.91 1443.83 1088.49 1440.81 1088.68C1440.01 1088.74 1439.17 1088.77 1438.37 1088.77H1377.32V1347.59C1376.41 1348.64 1375.47 1349.69 1374.52 1350.73C1360.16 1366.78 1345.36 1382.51 1330.13 1397.92C1325.27 1395.52 1321.22 1392.04 1318.42 1387.82C1315.61 1383.6 1314.14 1378.81 1314.17 1373.93V1088.77H1177.31C1173.27 1088.79 1169.27 1088.11 1165.53 1086.77C1160.82 1085.13 1156.63 1082.51 1153.33 1079.15C1150.03 1075.79 1147.7 1071.77 1146.55 1067.46V1067.42C1144.85 1061.15 1145.76 1054.55 1149.1 1048.81C1149.06 1048.77 1149.06 1048.77 1149.1 1048.77C1150.54 1046.24 1152.43 1043.93 1154.7 1041.91C1157.64 1039.28 1161.16 1037.18 1165.04 1035.75C1168.92 1034.32 1173.1 1033.59 1177.31 1033.59H1438.37C1446.74 1033.59 1454.77 1036.49 1460.68 1041.66C1466.6 1046.83 1469.93 1053.84 1469.93 1061.16L1469.93 1061.17Z" fill="#D8D4D4"/>
<path d="M1467.84 529.499C1454.85 529.499 1441.98 531.736 1429.97 536.081C1417.97 540.426 1407.06 546.795 1397.87 554.825C1388.68 562.854 1381.39 572.386 1376.42 582.876C1371.45 593.367 1368.89 604.611 1368.89 615.966V615.966C1368.89 636.024 1376.88 655.457 1391.47 670.938C1406.06 686.42 1426.36 696.987 1448.89 700.831V842.25H1512.05V529.499H1467.84Z" fill="#DFDADA"/>
</g>
<defs>
<clipPath id="clip0_0_1">
<rect width="1771" height="1405.56" fill="white"/>
</clipPath>
</defs>
</svg>
