<svg width="531" height="531" viewBox="0 0 531 531" fill="none" xmlns="http://www.w3.org/2000/svg">
<g clip-path="url(#clip0_9_3)">
<mask id="mask0_9_3" style="mask-type:luminance" maskUnits="userSpaceOnUse" x="0" y="0" width="531" height="531">
<path d="M531 0H0V531H531V0Z" fill="white"/>
</mask>
<g mask="url(#mask0_9_3)">
<path d="M531 265.5C531.092 328.172 508.924 388.84 468.447 436.688C466.977 438.433 465.479 440.151 463.954 441.86C446.008 462.044 425.102 479.386 401.952 493.297C396.642 496.485 391.216 499.489 385.673 502.309C385.113 502.594 384.543 502.879 383.983 503.155C383.312 503.495 382.632 503.825 381.953 504.156C367.927 511.021 353.317 516.623 338.297 520.894C336.735 521.335 335.17 521.764 333.602 522.181C313.844 527.409 293.547 530.334 273.116 530.899C272.05 530.927 271.003 530.945 269.992 530.963C269.634 530.972 269.285 530.982 268.936 530.982C267.788 530.991 266.648 531 265.5 531C243.97 531.016 222.518 528.416 201.615 523.255C199.52 522.741 197.435 522.199 195.358 521.629C184.422 518.644 173.69 514.952 163.232 510.578C157.72 508.281 152.306 505.803 146.99 503.145C145.786 502.539 144.583 501.933 143.398 501.308C142.892 501.06 142.396 500.794 141.9 500.536C113.566 485.582 88.1574 465.647 66.8895 441.685C65.4196 440.041 63.9773 438.369 62.5533 436.688C39.1201 408.904 21.6405 376.606 11.1971 341.792C0.753584 306.979 -2.43136 270.392 1.83949 234.298C6.11034 198.204 17.746 163.371 36.0259 131.956C54.3058 100.542 78.8407 73.2142 108.111 51.6669C109.618 50.5552 111.133 49.4528 112.668 48.378C112.971 48.1667 113.274 47.9554 113.577 47.7441C140.534 28.8614 170.791 15.1974 202.781 7.45971C204.6 7.00955 206.419 6.58696 208.257 6.19193C242.907 -1.3875 278.717 -2.01515 313.612 4.34536C315.44 4.68528 317.268 5.03439 319.087 5.41105C350.792 11.914 381.029 24.1928 408.291 41.6348C408.898 42.0207 409.504 42.4065 410.11 42.8107C411.332 43.6008 412.554 44.4092 413.758 45.2269C449.872 69.5062 479.456 102.299 499.904 140.713C520.35 179.128 531.029 221.983 531 265.5Z" fill="#F2F2F2"/>
<path d="M198.436 402.853L113.577 410.386L112.668 410.468V48.3779C112.971 48.1666 113.274 47.9553 113.577 47.744C131.263 35.3737 150.393 25.2112 170.545 17.4825L174.881 77.2889L175.276 82.7643L179.566 142.075L180.889 160.32L198.28 400.74L198.436 402.853Z" fill="#CCCCCC"/>
<path d="M408.291 41.6348C408.898 42.0206 409.504 42.4065 410.11 42.8107V410.468L408.291 410.303L324.351 402.853L324.507 400.74L341.898 160.32L343.221 142.075L347.511 82.7643L347.906 77.2889L352.454 14.5703C372.065 21.3679 390.806 30.4521 408.291 41.6348Z" fill="#CCCCCC"/>
<path d="M408.291 41.6348V415.484C408.291 422.659 403.349 428.493 397.267 428.493H124.601C119.567 428.493 115.295 424.488 114 419.021C113.717 417.864 113.575 416.676 113.577 415.484V47.744C113.274 47.9553 112.971 48.1666 112.668 48.3779C111.133 49.4528 109.618 50.5552 108.111 51.6668V415.484C108.029 420.934 110.065 426.204 113.788 430.183C115.741 432.229 118.211 433.708 120.936 434.465C122.13 434.79 123.363 434.953 124.601 434.951H397.267C398.508 434.952 399.744 434.789 400.942 434.465C408.273 432.489 413.757 424.736 413.757 415.484V45.2268C412.554 44.4092 411.332 43.6008 410.11 42.8107C409.504 42.4065 408.898 42.0206 408.291 41.6348Z" fill="#CCCCCC"/>
<path d="M411.026 77.2926H110.844V82.767H411.026V77.2926Z" fill="#CCCCCC"/>
<path d="M202.781 7.45967C204.6 7.00951 206.419 6.58693 208.257 6.19189V154.844H202.781V7.45967Z" fill="#CCCCCC"/>
<path d="M313.612 4.34534C315.44 4.68525 317.268 5.03435 319.087 5.41101V154.844H313.612V4.34534Z" fill="#CCCCCC"/>
<path d="M445.241 400.74H85.7501C79.2154 400.74 72.9483 403.336 68.3276 407.956C63.7069 412.577 61.1109 418.844 61.1109 425.379C61.1109 431.913 63.7069 438.181 68.3276 442.802C72.9483 447.422 79.2154 450.018 85.7501 450.018H445.241C448.74 450.019 452.199 449.273 455.387 447.83C458.574 446.385 461.417 444.279 463.725 441.649C464.769 440.46 465.698 439.174 466.499 437.809C467.119 436.761 467.657 435.668 468.107 434.538C469.608 430.8 470.168 426.751 469.74 422.746C469.312 418.74 467.908 414.902 465.651 411.565C463.394 408.23 460.353 405.497 456.794 403.611C453.236 401.723 449.269 400.737 445.241 400.74Z" fill="#CCCCCC"/>
<path d="M411.026 142.074H112.669V160.322H411.026V142.074Z" fill="#CCCCCC"/>
<path d="M259.111 136.599H264.585C265.903 136.599 267.208 136.858 268.426 137.363C269.643 137.868 270.75 138.607 271.682 139.539C272.613 140.471 273.353 141.578 273.857 142.795C274.362 144.012 274.622 145.318 274.622 146.636H249.074C249.074 143.974 250.131 141.421 252.014 139.539C253.896 137.657 256.449 136.599 259.111 136.599Z" fill="#CCCCCC"/>
<path d="M468.447 436.688C460.466 446.145 451.833 455.031 442.613 463.284H88.3867C79.1663 455.031 70.5342 446.145 62.5533 436.688H468.447Z" fill="#3F3D56"/>
<path d="M295.155 344.571H235.514C235.193 344.568 234.873 344.617 234.568 344.718C233.92 344.919 233.354 345.321 232.953 345.867C232.55 346.412 232.335 347.072 232.335 347.75V441.97H298.343V347.75C298.343 347.332 298.259 346.918 298.1 346.532C297.939 346.146 297.704 345.795 297.408 345.5C297.112 345.204 296.76 344.971 296.374 344.811C295.987 344.652 295.573 344.57 295.155 344.571ZM272.583 391.057C272.585 392.585 272.081 394.071 271.15 395.283C270.262 396.459 269.026 397.326 267.618 397.762C266.21 398.199 264.701 398.183 263.302 397.716C261.904 397.25 260.688 396.356 259.824 395.161C258.961 393.966 258.495 392.53 258.49 391.057V380.124C258.508 378.267 259.258 376.491 260.577 375.184C261.897 373.876 263.679 373.143 265.537 373.143C267.394 373.143 269.177 373.876 270.497 375.184C271.816 376.491 272.566 378.267 272.583 380.124V391.057Z" fill="#2F2E41"/>
<path d="M232.133 438.957V448.043C232.133 448.514 232.32 448.966 232.652 449.299C232.984 449.634 233.435 449.822 233.906 449.825H296.772C297.242 449.821 297.693 449.632 298.025 449.298C298.357 448.964 298.543 448.513 298.545 448.043V438.957H232.133Z" fill="#3F3D56"/>
<path d="M393.914 197.536H138.979C136.789 197.538 134.688 198.409 133.139 199.957C131.589 201.505 130.716 203.604 130.711 205.795V377.828C130.712 380.02 131.584 382.122 133.134 383.672C134.685 385.222 136.787 386.094 138.979 386.096H393.914C396.106 386.094 398.208 385.222 399.758 383.672C401.308 382.122 402.18 380.02 402.182 377.828V205.795C402.176 203.604 401.304 201.505 399.754 199.957C398.204 198.409 396.104 197.538 393.914 197.536Z" fill="#3F3D56"/>
<path d="M391.782 203.507H141.101C139.928 203.51 138.804 203.977 137.975 204.807C137.148 205.638 136.682 206.762 136.682 207.935V375.705C136.684 376.877 137.151 377.999 137.978 378.828C138.807 379.656 139.93 380.122 141.101 380.124H391.782C392.954 380.122 394.076 379.656 394.905 378.828C395.733 377.999 396.199 376.877 396.201 375.705V207.935C396.201 206.762 395.736 205.638 394.908 204.807C394.079 203.977 392.956 203.51 391.782 203.507Z" fill="#FFCACC"/>
<path d="M345.646 449.678L343.331 438.681C343.235 438.233 343.029 437.816 342.73 437.468C342.432 437.12 342.05 436.851 341.622 436.688C341.312 436.566 340.982 436.504 340.648 436.504H196.13C195.797 436.504 195.467 436.566 195.156 436.688C194.728 436.851 194.347 437.12 194.048 437.468C193.75 437.816 193.543 438.233 193.448 438.681L191.132 449.678C191.049 450.078 191.055 450.49 191.151 450.886C191.247 451.283 191.43 451.653 191.687 451.97C191.944 452.286 192.268 452.542 192.636 452.718C193.005 452.893 193.407 452.984 193.815 452.985H342.954C343.363 452.987 343.768 452.897 344.137 452.72C344.506 452.543 344.83 452.285 345.086 451.965C345.343 451.649 345.527 451.281 345.624 450.885C345.721 450.489 345.729 450.077 345.646 449.678Z" fill="#2F2E41"/>
<path d="M201.334 438.485H197.638C197.391 438.485 197.189 438.685 197.189 438.933V440.793C197.189 441.04 197.391 441.241 197.638 441.241H201.334C201.582 441.241 201.783 441.04 201.783 440.793V438.933C201.783 438.685 201.582 438.485 201.334 438.485Z" fill="#3F3D56"/>
<path d="M210.521 438.485H206.825C206.577 438.485 206.376 438.685 206.376 438.933V440.793C206.376 441.04 206.577 441.241 206.825 441.241H210.521C210.768 441.241 210.97 441.04 210.97 440.793V438.933C210.97 438.685 210.768 438.485 210.521 438.485Z" fill="#3F3D56"/>
<path d="M219.708 438.485H216.011C215.764 438.485 215.563 438.685 215.563 438.933V440.793C215.563 441.04 215.764 441.241 216.011 441.241H219.708C219.955 441.241 220.156 441.04 220.156 440.793V438.933C220.156 438.685 219.955 438.485 219.708 438.485Z" fill="#3F3D56"/>
<path d="M228.895 438.485H225.198C224.951 438.485 224.75 438.685 224.75 438.933V440.793C224.75 441.04 224.951 441.241 225.198 441.241H228.895C229.142 441.241 229.343 441.04 229.343 440.793V438.933C229.343 438.685 229.142 438.485 228.895 438.485Z" fill="#3F3D56"/>
<path d="M238.082 438.485H234.385C234.138 438.485 233.937 438.685 233.937 438.933V440.793C233.937 441.04 234.138 441.241 234.385 441.241H238.082C238.329 441.241 238.53 441.04 238.53 440.793V438.933C238.53 438.685 238.329 438.485 238.082 438.485Z" fill="#3F3D56"/>
<path d="M247.269 438.485H243.572C243.325 438.485 243.124 438.685 243.124 438.933V440.793C243.124 441.04 243.325 441.241 243.572 441.241H247.269C247.516 441.241 247.717 441.04 247.717 440.793V438.933C247.717 438.685 247.516 438.485 247.269 438.485Z" fill="#3F3D56"/>
<path d="M256.456 438.485H252.759C252.512 438.485 252.31 438.685 252.31 438.933V440.793C252.31 441.04 252.512 441.241 252.759 441.241H256.456C256.703 441.241 256.904 441.04 256.904 440.793V438.933C256.904 438.685 256.703 438.485 256.456 438.485Z" fill="#3F3D56"/>
<path d="M265.642 438.485H261.946C261.698 438.485 261.497 438.685 261.497 438.933V440.793C261.497 441.04 261.698 441.241 261.946 441.241H265.642C265.89 441.241 266.091 441.04 266.091 440.793V438.933C266.091 438.685 265.89 438.485 265.642 438.485Z" fill="#3F3D56"/>
<path d="M274.829 438.485H271.132C270.885 438.485 270.684 438.685 270.684 438.933V440.793C270.684 441.04 270.885 441.241 271.132 441.241H274.829C275.076 441.241 275.278 441.04 275.278 440.793V438.933C275.278 438.685 275.076 438.485 274.829 438.485Z" fill="#3F3D56"/>
<path d="M284.016 438.485H280.319C280.072 438.485 279.871 438.685 279.871 438.933V440.793C279.871 441.04 280.072 441.241 280.319 441.241H284.016C284.263 441.241 284.464 441.04 284.464 440.793V438.933C284.464 438.685 284.263 438.485 284.016 438.485Z" fill="#3F3D56"/>
<path d="M293.203 438.485H289.506C289.259 438.485 289.058 438.685 289.058 438.933V440.793C289.058 441.04 289.259 441.241 289.506 441.241H293.203C293.45 441.241 293.651 441.04 293.651 440.793V438.933C293.651 438.685 293.45 438.485 293.203 438.485Z" fill="#3F3D56"/>
<path d="M302.39 438.485H298.693C298.446 438.485 298.245 438.685 298.245 438.933V440.793C298.245 441.04 298.446 441.241 298.693 441.241H302.39C302.637 441.241 302.838 441.04 302.838 440.793V438.933C302.838 438.685 302.637 438.485 302.39 438.485Z" fill="#3F3D56"/>
<path d="M311.577 438.485H307.88C307.633 438.485 307.432 438.685 307.432 438.933V440.793C307.432 441.04 307.633 441.241 307.88 441.241H311.577C311.824 441.241 312.025 441.04 312.025 440.793V438.933C312.025 438.685 311.824 438.485 311.577 438.485Z" fill="#3F3D56"/>
<path d="M320.764 438.485H317.067C316.82 438.485 316.618 438.685 316.618 438.933V440.793C316.618 441.04 316.82 441.241 317.067 441.241H320.764C321.011 441.241 321.212 441.04 321.212 440.793V438.933C321.212 438.685 321.011 438.485 320.764 438.485Z" fill="#3F3D56"/>
<path d="M329.95 438.485H326.254C326.006 438.485 325.805 438.685 325.805 438.933V440.793C325.805 441.04 326.006 441.241 326.254 441.241H329.95C330.197 441.241 330.399 441.04 330.399 440.793V438.933C330.399 438.685 330.197 438.485 329.95 438.485Z" fill="#3F3D56"/>
<path d="M339.137 438.485H335.44C335.193 438.485 334.992 438.685 334.992 438.933V440.793C334.992 441.04 335.193 441.241 335.44 441.241H339.137C339.384 441.241 339.586 441.04 339.586 440.793V438.933C339.586 438.685 339.384 438.485 339.137 438.485Z" fill="#3F3D56"/>
<path d="M201.226 443.078H197.529C197.281 443.078 197.081 443.278 197.081 443.526V445.386C197.081 445.633 197.281 445.834 197.529 445.834H201.226C201.473 445.834 201.674 445.633 201.674 445.386V443.526C201.674 443.278 201.473 443.078 201.226 443.078Z" fill="#3F3D56"/>
<path d="M210.413 443.078H206.716C206.468 443.078 206.268 443.278 206.268 443.526V445.386C206.268 445.633 206.468 445.834 206.716 445.834H210.413C210.66 445.834 210.861 445.633 210.861 445.386V443.526C210.861 443.278 210.66 443.078 210.413 443.078Z" fill="#3F3D56"/>
<path d="M219.6 443.078H215.903C215.655 443.078 215.455 443.278 215.455 443.526V445.386C215.455 445.633 215.655 445.834 215.903 445.834H219.6C219.847 445.834 220.048 445.633 220.048 445.386V443.526C220.048 443.278 219.847 443.078 219.6 443.078Z" fill="#3F3D56"/>
<path d="M228.787 443.078H225.09C224.842 443.078 224.641 443.278 224.641 443.526V445.386C224.641 445.633 224.842 445.834 225.09 445.834H228.787C229.034 445.834 229.235 445.633 229.235 445.386V443.526C229.235 443.278 229.034 443.078 228.787 443.078Z" fill="#3F3D56"/>
<path d="M237.973 443.078H234.277C234.029 443.078 233.828 443.278 233.828 443.526V445.386C233.828 445.633 234.029 445.834 234.277 445.834H237.973C238.221 445.834 238.422 445.633 238.422 445.386V443.526C238.422 443.278 238.221 443.078 237.973 443.078Z" fill="#3F3D56"/>
<path d="M247.16 443.078H243.464C243.215 443.078 243.015 443.278 243.015 443.526V445.386C243.015 445.633 243.215 445.834 243.464 445.834H247.16C247.407 445.834 247.609 445.633 247.609 445.386V443.526C247.609 443.278 247.407 443.078 247.16 443.078Z" fill="#3F3D56"/>
<path d="M256.347 443.078H252.65C252.402 443.078 252.202 443.278 252.202 443.526V445.386C252.202 445.633 252.402 445.834 252.65 445.834H256.347C256.594 445.834 256.795 445.633 256.795 445.386V443.526C256.795 443.278 256.594 443.078 256.347 443.078Z" fill="#3F3D56"/>
<path d="M265.534 443.078H261.837C261.589 443.078 261.389 443.278 261.389 443.526V445.386C261.389 445.633 261.589 445.834 261.837 445.834H265.534C265.781 445.834 265.982 445.633 265.982 445.386V443.526C265.982 443.278 265.781 443.078 265.534 443.078Z" fill="#3F3D56"/>
<path d="M274.721 443.078H271.024C270.776 443.078 270.576 443.278 270.576 443.526V445.386C270.576 445.633 270.776 445.834 271.024 445.834H274.721C274.968 445.834 275.169 445.633 275.169 445.386V443.526C275.169 443.278 274.968 443.078 274.721 443.078Z" fill="#3F3D56"/>
<path d="M283.908 443.078H280.211C279.963 443.078 279.763 443.278 279.763 443.526V445.386C279.763 445.633 279.963 445.834 280.211 445.834H283.908C284.155 445.834 284.356 445.633 284.356 445.386V443.526C284.356 443.278 284.155 443.078 283.908 443.078Z" fill="#3F3D56"/>
<path d="M293.095 443.078H289.398C289.15 443.078 288.949 443.278 288.949 443.526V445.386C288.949 445.633 289.15 445.834 289.398 445.834H293.095C293.342 445.834 293.543 445.633 293.543 445.386V443.526C293.543 443.278 293.342 443.078 293.095 443.078Z" fill="#3F3D56"/>
<path d="M302.281 443.078H298.585C298.337 443.078 298.136 443.278 298.136 443.526V445.386C298.136 445.633 298.337 445.834 298.585 445.834H302.281C302.529 445.834 302.73 445.633 302.73 445.386V443.526C302.73 443.278 302.529 443.078 302.281 443.078Z" fill="#3F3D56"/>
<path d="M311.468 443.078H307.771C307.523 443.078 307.323 443.278 307.323 443.526V445.386C307.323 445.633 307.523 445.834 307.771 445.834H311.468C311.715 445.834 311.917 445.633 311.917 445.386V443.526C311.917 443.278 311.715 443.078 311.468 443.078Z" fill="#3F3D56"/>
<path d="M320.655 443.078H316.958C316.71 443.078 316.51 443.278 316.51 443.526V445.386C316.51 445.633 316.71 445.834 316.958 445.834H320.655C320.902 445.834 321.103 445.633 321.103 445.386V443.526C321.103 443.278 320.902 443.078 320.655 443.078Z" fill="#3F3D56"/>
<path d="M329.842 443.078H326.145C325.897 443.078 325.697 443.278 325.697 443.526V445.386C325.697 445.633 325.897 445.834 326.145 445.834H329.842C330.089 445.834 330.29 445.633 330.29 445.386V443.526C330.29 443.278 330.089 443.078 329.842 443.078Z" fill="#3F3D56"/>
<path d="M339.029 443.078H335.332C335.084 443.078 334.884 443.278 334.884 443.526V445.386C334.884 445.633 335.084 445.834 335.332 445.834H339.029C339.276 445.834 339.477 445.633 339.477 445.386V443.526C339.477 443.278 339.276 443.078 339.029 443.078Z" fill="#3F3D56"/>
<path d="M277.477 448.59H241.626C241.378 448.59 241.178 448.791 241.178 449.039V450.898C241.178 451.145 241.378 451.346 241.626 451.346H277.477C277.724 451.346 277.925 451.145 277.925 450.898V449.039C277.925 448.791 277.724 448.59 277.477 448.59Z" fill="#3F3D56"/>
<path d="M379.185 226.619H144.624C144.38 226.613 144.148 226.512 143.977 226.338C143.806 226.164 143.711 225.93 143.711 225.685C143.711 225.442 143.806 225.207 143.977 225.033C144.148 224.858 144.38 224.758 144.624 224.753H379.185C379.43 224.758 379.661 224.858 379.832 225.033C380.002 225.207 380.098 225.442 380.098 225.685C380.098 225.93 380.002 226.164 379.832 226.338C379.661 226.512 379.43 226.613 379.185 226.619Z" fill="#3F3D56"/>
<path d="M160.591 219.99C163.61 219.99 166.057 217.488 166.057 214.402C166.057 211.315 163.61 208.813 160.591 208.813C157.572 208.813 155.125 211.315 155.125 214.402C155.125 217.488 157.572 219.99 160.591 219.99Z" fill="#3F3D56"/>
<path d="M179.475 219.99C182.494 219.99 184.941 217.488 184.941 214.402C184.941 211.315 182.494 208.813 179.475 208.813C176.456 208.813 174.009 211.315 174.009 214.402C174.009 217.488 176.456 219.99 179.475 219.99Z" fill="#3F3D56"/>
<path d="M198.36 219.99C201.379 219.99 203.826 217.488 203.826 214.402C203.826 211.315 201.379 208.813 198.36 208.813C195.341 208.813 192.894 211.315 192.894 214.402C192.894 217.488 195.341 219.99 198.36 219.99Z" fill="#3F3D56"/>
<path d="M367.814 210.195H354.401C354.136 210.202 353.884 210.311 353.698 210.501C353.513 210.69 353.409 210.945 353.409 211.21C353.409 211.476 353.513 211.73 353.698 211.92C353.884 212.11 354.136 212.219 354.401 212.225H367.814C368.08 212.222 368.335 212.113 368.522 211.923C368.71 211.733 368.815 211.477 368.815 211.21C368.815 210.944 368.71 210.688 368.522 210.497C368.335 210.307 368.08 210.199 367.814 210.195Z" fill="#3F3D56"/>
<path d="M367.814 214.008H354.401C354.136 214.013 353.883 214.123 353.697 214.313C353.512 214.503 353.408 214.757 353.408 215.023C353.408 215.288 353.512 215.543 353.697 215.733C353.883 215.922 354.136 216.032 354.401 216.038H367.814C368.081 216.035 368.336 215.927 368.524 215.737C368.712 215.546 368.817 215.29 368.817 215.023C368.817 214.755 368.712 214.499 368.524 214.309C368.336 214.119 368.081 214.011 367.814 214.008Z" fill="#3F3D56"/>
<path d="M367.814 217.82H354.401C354.136 217.827 353.884 217.936 353.698 218.126C353.513 218.315 353.409 218.57 353.409 218.835C353.409 219.101 353.513 219.355 353.698 219.545C353.884 219.735 354.136 219.844 354.401 219.851H367.814C368.08 219.847 368.335 219.739 368.522 219.548C368.71 219.358 368.815 219.102 368.815 218.835C368.815 218.569 368.71 218.313 368.522 218.123C368.335 217.932 368.08 217.824 367.814 217.82Z" fill="#3F3D56"/>
<path d="M164.849 248.296H160.029C158.569 248.296 157.384 249.481 157.384 250.942C157.384 252.403 158.569 253.587 160.029 253.587H164.849C166.31 253.587 167.495 252.403 167.495 250.942C167.495 249.481 166.31 248.296 164.849 248.296Z" fill="#E6E6E6"/>
<path d="M219.97 248.296H215.151C213.69 248.296 212.505 249.481 212.505 250.942C212.505 252.403 213.69 253.587 215.151 253.587H219.97C221.432 253.587 222.616 252.403 222.616 250.942C222.616 249.481 221.432 248.296 219.97 248.296Z" fill="#E6E6E6"/>
<path d="M235.588 248.296H230.768C229.307 248.296 228.122 249.481 228.122 250.942C228.122 252.403 229.307 253.587 230.768 253.587H235.588C237.049 253.587 238.233 252.403 238.233 250.942C238.233 249.481 237.049 248.296 235.588 248.296Z" fill="#E6E6E6"/>
<path d="M204.977 247.855H175.022C173.562 247.855 172.377 249.04 172.377 250.501C172.377 251.962 173.562 253.146 175.022 253.146H204.977C206.439 253.146 207.623 251.962 207.623 250.501C207.623 249.04 206.439 247.855 204.977 247.855Z" fill="#E6E6E6"/>
<path d="M278.472 247.855H248.517C247.057 247.855 245.871 249.04 245.871 250.501C245.871 251.962 247.057 253.146 248.517 253.146H278.472C279.933 253.146 281.118 251.962 281.118 250.501C281.118 249.04 279.933 247.855 278.472 247.855Z" fill="#E6E6E6"/>
<path d="M179.548 260.239H174.728C173.268 260.239 172.083 261.424 172.083 262.885C172.083 264.346 173.268 265.53 174.728 265.53H179.548C181.009 265.53 182.194 264.346 182.194 262.885C182.194 261.424 181.009 260.239 179.548 260.239Z" fill="#E6E6E6"/>
<path d="M234.669 260.239H229.849C228.389 260.239 227.204 261.424 227.204 262.885C227.204 264.346 228.389 265.53 229.849 265.53H234.669C236.131 265.53 237.315 264.346 237.315 262.885C237.315 261.424 236.131 260.239 234.669 260.239Z" fill="#E6E6E6"/>
<path d="M250.287 260.239H245.467C244.006 260.239 242.821 261.424 242.821 262.885C242.821 264.346 244.006 265.53 245.467 265.53H250.287C251.748 265.53 252.932 264.346 252.932 262.885C252.932 261.424 251.748 260.239 250.287 260.239Z" fill="#E6E6E6"/>
<path d="M219.676 259.798H189.721C188.261 259.798 187.076 260.983 187.076 262.444C187.076 263.905 188.261 265.089 189.721 265.089H219.676C221.138 265.089 222.322 263.905 222.322 262.444C222.322 260.983 221.138 259.798 219.676 259.798Z" fill="#E6E6E6"/>
<path d="M293.171 259.798H263.216C261.755 259.798 260.57 260.983 260.57 262.444C260.57 263.905 261.755 265.089 263.216 265.089H293.171C294.632 265.089 295.817 263.905 295.817 262.444C295.817 260.983 294.632 259.798 293.171 259.798Z" fill="#E6E6E6"/>
<path d="M194.247 272.182H189.427C187.967 272.182 186.782 273.367 186.782 274.827C186.782 276.289 187.967 277.473 189.427 277.473H194.247C195.708 277.473 196.893 276.289 196.893 274.827C196.893 273.367 195.708 272.182 194.247 272.182Z" fill="#E6E6E6"/>
<path d="M249.368 272.182H244.548C243.088 272.182 241.903 273.367 241.903 274.827C241.903 276.289 243.088 277.473 244.548 277.473H249.368C250.83 277.473 252.014 276.289 252.014 274.827C252.014 273.367 250.83 272.182 249.368 272.182Z" fill="#E6E6E6"/>
<path d="M264.986 272.182H260.166C258.705 272.182 257.52 273.367 257.52 274.827C257.52 276.289 258.705 277.473 260.166 277.473H264.986C266.447 277.473 267.631 276.289 267.631 274.827C267.631 273.367 266.447 272.182 264.986 272.182Z" fill="#E6E6E6"/>
<path d="M234.375 271.741H204.42C202.96 271.741 201.774 272.926 201.774 274.386C201.774 275.848 202.96 277.032 204.42 277.032H234.375C235.837 277.032 237.021 275.848 237.021 274.386C237.021 272.926 235.837 271.741 234.375 271.741Z" fill="#E6E6E6"/>
<path d="M307.87 271.741H277.915C276.454 271.741 275.269 272.926 275.269 274.386C275.269 275.848 276.454 277.032 277.915 277.032H307.87C309.331 277.032 310.516 275.848 310.516 274.386C310.516 272.926 309.331 271.741 307.87 271.741Z" fill="#E6E6E6"/>
<path d="M208.946 284.125H204.126C202.666 284.125 201.48 285.31 201.48 286.77C201.48 288.232 202.666 289.416 204.126 289.416H208.946C210.407 289.416 211.592 288.232 211.592 286.77C211.592 285.31 210.407 284.125 208.946 284.125Z" fill="#E6E6E6"/>
<path d="M264.067 284.125H259.247C257.787 284.125 256.602 285.31 256.602 286.77C256.602 288.232 257.787 289.416 259.247 289.416H264.067C265.528 289.416 266.713 288.232 266.713 286.77C266.713 285.31 265.528 284.125 264.067 284.125Z" fill="#E6E6E6"/>
<path d="M279.685 284.125H274.865C273.404 284.125 272.219 285.31 272.219 286.77C272.219 288.232 273.404 289.416 274.865 289.416H279.685C281.146 289.416 282.33 288.232 282.33 286.77C282.33 285.31 281.146 284.125 279.685 284.125Z" fill="#E6E6E6"/>
<path d="M249.074 283.684H219.119C217.659 283.684 216.473 284.869 216.473 286.329C216.473 287.791 217.659 288.975 219.119 288.975H249.074C250.536 288.975 251.72 287.791 251.72 286.329C251.72 284.869 250.536 283.684 249.074 283.684Z" fill="#E6E6E6"/>
<path d="M219.97 331.615H215.151C213.69 331.615 212.505 332.799 212.505 334.261C212.505 335.721 213.69 336.907 215.151 336.907H219.97C221.432 336.907 222.616 335.721 222.616 334.261C222.616 332.799 221.432 331.615 219.97 331.615Z" fill="#E6E6E6"/>
<path d="M235.588 331.615H230.768C229.307 331.615 228.122 332.799 228.122 334.261C228.122 335.721 229.307 336.907 230.768 336.907H235.588C237.049 336.907 238.233 335.721 238.233 334.261C238.233 332.799 237.049 331.615 235.588 331.615Z" fill="#E6E6E6"/>
<path d="M278.472 332.056H248.517C247.057 332.056 245.871 333.24 245.871 334.702C245.871 336.162 247.057 337.348 248.517 337.348H278.472C279.933 337.348 281.118 336.162 281.118 334.702C281.118 333.24 279.933 332.056 278.472 332.056Z" fill="#E6E6E6"/>
<path d="M164.849 331.615H160.029C158.569 331.615 157.384 332.799 157.384 334.261C157.384 335.721 158.569 336.907 160.029 336.907H164.849C166.31 336.907 167.495 335.721 167.495 334.261C167.495 332.799 166.31 331.615 164.849 331.615Z" fill="#E6E6E6"/>
<path d="M204.977 332.056H175.022C173.562 332.056 172.377 333.24 172.377 334.702C172.377 336.162 173.562 337.348 175.022 337.348H204.977C206.439 337.348 207.623 336.162 207.623 334.702C207.623 333.24 206.439 332.056 204.977 332.056Z" fill="#E6E6E6"/>
<path d="M179.548 319.672H174.728C173.268 319.672 172.083 320.856 172.083 322.318C172.083 323.779 173.268 324.964 174.728 324.964H179.548C181.009 324.964 182.194 323.779 182.194 322.318C182.194 320.856 181.009 319.672 179.548 319.672Z" fill="#E6E6E6"/>
<path d="M234.669 319.672H229.849C228.389 319.672 227.204 320.856 227.204 322.318C227.204 323.779 228.389 324.964 229.849 324.964H234.669C236.131 324.964 237.315 323.779 237.315 322.318C237.315 320.856 236.131 319.672 234.669 319.672Z" fill="#E6E6E6"/>
<path d="M250.287 319.672H245.467C244.006 319.672 242.821 320.856 242.821 322.318C242.821 323.779 244.006 324.964 245.467 324.964H250.287C251.748 324.964 252.932 323.779 252.932 322.318C252.932 320.856 251.748 319.672 250.287 319.672Z" fill="#E6E6E6"/>
<path d="M219.676 320.113H189.721C188.261 320.113 187.076 321.297 187.076 322.759C187.076 324.22 188.261 325.405 189.721 325.405H219.676C221.138 325.405 222.322 324.22 222.322 322.759C222.322 321.297 221.138 320.113 219.676 320.113Z" fill="#E6E6E6"/>
<path d="M194.247 307.729H189.427C187.967 307.729 186.782 308.913 186.782 310.375C186.782 311.836 187.967 313.021 189.427 313.021H194.247C195.708 313.021 196.893 311.836 196.893 310.375C196.893 308.913 195.708 307.729 194.247 307.729Z" fill="#E6E6E6"/>
<path d="M249.368 307.729H244.548C243.088 307.729 241.903 308.913 241.903 310.375C241.903 311.836 243.088 313.021 244.548 313.021H249.368C250.83 313.021 252.014 311.836 252.014 310.375C252.014 308.913 250.83 307.729 249.368 307.729Z" fill="#E6E6E6"/>
<path d="M264.986 307.729H260.166C258.705 307.729 257.52 308.913 257.52 310.375C257.52 311.836 258.705 313.021 260.166 313.021H264.986C266.447 313.021 267.631 311.836 267.631 310.375C267.631 308.913 266.447 307.729 264.986 307.729Z" fill="#E6E6E6"/>
<path d="M234.375 308.17H204.42C202.96 308.17 201.774 309.354 201.774 310.816C201.774 312.277 202.96 313.462 204.42 313.462H234.375C235.837 313.462 237.021 312.277 237.021 310.816C237.021 309.354 235.837 308.17 234.375 308.17Z" fill="#E6E6E6"/>
<path d="M208.946 295.786H204.126C202.666 295.786 201.48 296.971 201.48 298.432C201.48 299.893 202.666 301.078 204.126 301.078H208.946C210.407 301.078 211.592 299.893 211.592 298.432C211.592 296.971 210.407 295.786 208.946 295.786Z" fill="#E6E6E6"/>
<path d="M264.067 295.786H259.247C257.787 295.786 256.602 296.971 256.602 298.432C256.602 299.893 257.787 301.078 259.247 301.078H264.067C265.528 301.078 266.713 299.893 266.713 298.432C266.713 296.971 265.528 295.786 264.067 295.786Z" fill="#E6E6E6"/>
<path d="M279.685 295.786H274.865C273.404 295.786 272.219 296.971 272.219 298.432C272.219 299.893 273.404 301.078 274.865 301.078H279.685C281.146 301.078 282.33 299.893 282.33 298.432C282.33 296.971 281.146 295.786 279.685 295.786Z" fill="#E6E6E6"/>
<path d="M249.074 296.227H219.119C217.659 296.227 216.473 297.411 216.473 298.873C216.473 300.334 217.659 301.519 219.119 301.519H249.074C250.536 301.519 251.72 300.334 251.72 298.873C251.72 297.411 250.536 296.227 249.074 296.227Z" fill="#E6E6E6"/>
<path d="M381.998 504.147C381.438 504.432 380.868 504.716 380.308 504.992C365.793 512.25 354.181 516.375 338.297 520.894C336.955 505.92 335.66 479.6 334.401 463.284C334.071 459.049 333.74 455.493 333.418 452.985C333.338 451.652 333.065 450.337 332.61 449.081L332.665 452.985L332.803 463.284L333.602 522.181C313.844 527.409 293.547 530.334 273.116 530.899C272.05 530.926 271.003 530.945 269.992 530.963C269.634 530.972 269.285 530.982 268.936 530.982C267.788 530.991 266.648 531 265.5 531C243.97 531.016 222.517 528.416 201.615 523.255C202.065 508.437 202.515 482.411 202.947 463.284C203.039 459.545 203.121 456.063 203.213 452.985C203.388 446.407 203.571 441.667 203.746 440.078C203.592 440.36 203.471 440.658 203.388 440.969C202.537 444.93 201.956 448.945 201.651 452.985C201.33 456.063 201.008 459.545 200.687 463.284C198.978 483.155 197.196 510.173 195.358 521.629C184.422 518.644 173.69 514.952 163.232 510.578C157.72 508.281 152.306 505.803 146.99 503.145C148 496.531 149.057 489.117 150.141 481.428C150.986 475.465 151.859 469.338 152.75 463.284C154.128 453.931 155.543 444.763 156.976 436.688C159.07 424.892 161.22 415.411 163.351 411.056C165.373 406.922 167.394 402.843 169.35 398.939C170.03 397.57 170.71 396.22 171.372 394.906C171.528 394.594 171.684 394.29 171.84 393.987C173.246 391.222 174.605 388.576 175.901 386.096C177.012 383.974 178.069 381.971 179.07 380.124C181.495 375.641 183.553 372.067 185.078 369.807C191.454 360.136 200.946 352.937 211.977 349.403L212.253 349.33L212.446 349.413L231.233 343.643L233.98 342.798L235.826 342.229L242.331 337.277L245.868 334.585L249.184 332.059L255.67 327.125L295.826 329.597L303.644 348.421L321.154 354.824L321.457 354.686L321.724 354.576L321.999 354.649C333.029 358.185 342.52 365.385 348.898 375.053C349.762 376.349 350.809 378.057 351.994 380.124C353.005 381.879 354.107 383.882 355.301 386.096C357.001 389.247 358.857 392.802 360.823 396.651C361.255 397.497 361.696 398.36 362.136 399.233C362.954 400.85 363.784 402.501 364.626 404.185C366.583 408.089 368.604 412.168 370.625 416.311C372.38 419.903 374.153 427.29 375.898 436.688C377.341 444.497 378.774 453.702 380.161 463.284C381.98 475.704 380.042 490.578 381.686 502.006C381.787 502.732 381.897 503.439 381.998 504.147Z" fill="#3F3D56"/>
<path d="M266.065 312.1C291.858 312.1 312.767 291.19 312.767 265.397C312.767 239.604 291.858 218.695 266.065 218.695C240.272 218.695 219.363 239.604 219.363 265.397C219.363 291.19 240.272 312.1 266.065 312.1Z" fill="#FFDDCC"/>
<path d="M343.083 203.507C342.16 201.352 340.931 199.341 339.436 197.536C332.344 188.872 319.445 185.06 306.207 195.312C303.659 194.743 301.003 194.895 298.536 195.753C297.372 196.175 296.281 196.777 295.302 197.536C293.298 199.099 291.734 201.157 290.764 203.507C290.246 204.748 289.905 206.056 289.753 207.393C286.481 205.693 283.018 204.388 279.436 203.507C270.65 201.322 261.461 201.322 252.675 203.507C249.859 204.219 247.148 205.294 244.609 206.704C240.31 209.185 237.838 212.317 237.397 215.799C231.196 216.148 224.747 219.41 219.942 224.756C219.4 225.353 218.877 225.978 218.39 226.621C214.349 231.908 212.178 238.387 212.216 245.041V246.208H213.383C216.58 246.205 219.747 246.822 222.708 248.027C224.627 248.797 226.444 249.8 228.119 251.012C229.215 251.79 230.249 252.649 231.215 253.585C233.453 255.751 235.348 258.244 236.837 260.98C240.654 267.893 241.977 275.908 240.585 283.681C240.266 285.48 239.799 287.25 239.189 288.972C238.321 291.43 237.178 293.782 235.781 295.982C235.725 296.065 235.679 296.147 235.624 296.23C235.009 297.213 234.421 298.214 233.87 299.225C233.456 299.978 233.07 300.75 232.712 301.522C231.665 303.67 230.78 305.893 230.066 308.173C228.788 312.206 228.034 316.387 227.825 320.612C227.76 321.733 227.742 322.854 227.779 323.974C227.833 326.864 228.15 329.742 228.725 332.573C228.808 332.959 228.89 333.336 228.973 333.722L229.644 336.652L231.233 343.643L232.335 348.457L233.355 352.922L234.862 350.763C235.376 350.028 236.672 347.768 238.408 344.571C239.556 342.486 240.888 339.996 242.331 337.277C244.343 333.464 246.548 329.211 248.706 324.967C249.579 323.249 250.443 321.54 251.279 319.868C252.859 316.698 254.347 313.639 255.624 310.92C256.8 308.412 257.801 306.189 258.546 304.406C258.775 305.573 258.968 306.758 259.115 307.952C259.28 309.165 259.4 310.396 259.464 311.627C259.483 311.811 259.492 312.004 259.501 312.188L259.538 312.941L259.547 313.161L260.521 313.29C266.138 313.892 271.799 313.935 277.425 313.419H277.434C284.885 312.857 292.196 311.086 299.078 308.173C302.987 306.477 306.636 304.238 309.918 301.522C311.452 300.252 312.884 298.864 314.2 297.369C314.53 296.993 314.852 296.616 315.164 296.23C316.982 293.996 318.538 291.56 319.803 288.972C320.65 287.265 321.369 285.496 321.953 283.681C325.481 272.996 325.279 259.666 321.347 243.828C322.409 243.623 323.426 243.232 324.351 242.671C327.236 240.934 329.238 237.489 329.863 233.282L330.855 233.548C334.373 231.91 337.506 229.55 340.051 226.621C340.556 226.025 341.028 225.402 341.466 224.756C345.958 218.142 345.995 210.204 343.083 203.507Z" fill="#2F2E41"/>
<path opacity="0.2" d="M189.543 436.647L197.349 406.522L204.242 432.517L189.543 436.647Z" fill="black"/>
<path d="M397.267 417.019C394.474 455.493 397.368 472.434 381.953 504.156C367.927 511.021 353.317 516.623 338.297 520.894C336.735 521.335 335.17 521.764 333.602 522.181C313.844 527.409 293.547 530.334 273.116 530.899C272.05 530.927 271.003 530.945 269.992 530.963C269.634 530.972 269.285 530.982 268.936 530.982C267.788 530.991 266.648 531 265.5 531C243.97 531.016 222.517 528.416 201.615 523.255C199.52 522.741 197.435 522.199 195.358 521.629C184.422 518.644 173.69 514.952 163.232 510.578C157.72 508.281 152.306 505.803 146.99 503.145C145.786 502.539 144.583 501.933 143.398 501.308C137.307 490.596 133.843 477.569 133.77 461.915C137.987 434.942 387.952 393.758 397.267 417.019Z" fill="#2F2E41"/>
<path opacity="0.2" d="M397.26 423.608C397.402 421.225 397.562 418.765 397.747 416.203C388.432 392.942 138.467 434.126 134.25 461.099C134.262 463.572 134.368 465.972 134.546 468.315C144.757 441.694 382.227 402.55 397.26 423.608Z" fill="black"/>
<path d="M149.834 314.33C149.894 313.497 149.776 312.661 149.487 311.877C149.197 311.093 148.743 310.381 148.155 309.788C147.567 309.195 146.86 308.734 146.079 308.438C145.298 308.141 144.463 308.015 143.63 308.068C143.319 308.08 143.01 308.119 142.707 308.184L106.178 316.436C105.361 316.634 104.596 317.001 103.93 317.512C103.264 318.024 102.713 318.67 102.311 319.408C101.776 319.428 101.244 319.505 100.724 319.639C99.5873 319.896 98.5124 320.375 97.5607 321.048C96.6089 321.722 95.7996 322.575 95.1776 323.561C94.5566 324.548 94.1349 325.646 93.9383 326.795C93.7408 327.944 93.772 329.12 94.0302 330.257C94.2874 331.394 94.767 332.468 95.4394 333.42C96.1128 334.372 96.9672 335.181 97.953 335.803C99.9437 337.058 102.353 337.472 104.648 336.951C105.955 336.648 107.177 336.056 108.226 335.22L120.604 370.075C121.222 371.167 122.178 372.031 123.327 372.535C124.476 373.039 125.759 373.158 126.981 372.874L150.728 367.507C151.941 367.223 153.033 366.562 153.847 365.618C154.661 364.675 155.155 363.497 155.258 362.256L149.834 314.33ZM104.1 334.469C102.46 334.84 100.741 334.544 99.319 333.648C97.8969 332.752 96.8882 331.329 96.5134 329.69C96.1395 328.051 96.4298 326.332 97.3218 324.907C98.2139 323.483 99.6351 322.47 101.272 322.091C101.388 322.063 101.504 322.091 101.619 322.063C101.61 323.113 101.878 324.149 102.398 325.063L106.928 332.969C106.139 333.717 105.162 334.236 104.1 334.469Z" fill="#2F2E41"/>
<path d="M143.63 308.068C143.976 312.685 136.07 317.994 125.48 320.1C115.757 322.091 107.043 320.706 104.59 317.07C105.084 316.778 105.618 316.564 106.178 316.436L142.707 308.184C143.01 308.119 143.319 308.08 143.63 308.068Z" fill="#3F3D56"/>
<path d="M118.366 425.264L138.884 415.005L121.786 368.841L117.28 345.56C116.694 342.535 115.325 339.717 113.31 337.387C111.294 335.057 108.703 333.297 105.793 332.283C102.884 331.269 99.76 331.035 96.732 331.607C93.705 332.178 90.8807 333.534 88.5415 335.539C85.0752 338.51 82.8988 342.712 82.4715 347.257C82.0443 351.802 83.3997 356.336 86.2517 359.901L102.978 380.81L118.366 425.264Z" fill="#FFDDCC"/>
<path d="M138.884 406.457L111.527 420.135L132.288 485.186C133.779 489.858 136.451 494.064 140.047 497.398C143.642 500.733 148.038 503.082 152.808 504.218C158.689 505.619 164.864 505.109 170.437 502.764C176.01 500.419 180.691 496.36 183.801 491.175L238.854 396.813C242.755 390.312 243.96 382.541 242.21 375.163C240.459 367.785 235.894 361.384 229.488 357.326C226.042 355.144 222.176 353.712 218.14 353.123C214.104 352.534 209.99 352.802 206.065 353.908C202.139 355.014 198.491 356.934 195.357 359.544C192.223 362.153 189.674 365.393 187.875 369.053L154.273 440.653L138.884 406.457Z" fill="#3F3D56"/>
<path d="M130.423 347.668C130.372 347.668 130.322 347.66 130.273 347.643L124.301 345.587C124.228 345.563 124.164 345.52 124.112 345.464C124.06 345.408 124.023 345.34 124.004 345.266C123.986 345.192 123.986 345.114 124.004 345.041C124.023 344.966 124.06 344.898 124.112 344.842L128.554 340.006C128.595 339.961 128.643 339.925 128.699 339.9C128.754 339.874 128.813 339.859 128.873 339.857C128.934 339.854 128.993 339.863 129.05 339.883C129.107 339.904 129.16 339.936 129.204 339.977C129.249 340.017 129.285 340.067 129.31 340.122C129.335 340.176 129.35 340.236 129.353 340.297C129.355 340.356 129.345 340.417 129.324 340.474C129.303 340.53 129.272 340.582 129.231 340.626L125.263 344.947L130.572 346.775C130.675 346.81 130.762 346.881 130.817 346.975C130.873 347.067 130.893 347.178 130.876 347.285C130.858 347.393 130.802 347.49 130.72 347.56C130.637 347.63 130.531 347.668 130.423 347.668Z" fill="#FFCACC"/>
<path d="M138.609 345.992C138.518 345.992 138.428 345.965 138.353 345.914C138.277 345.863 138.218 345.79 138.184 345.706C138.15 345.62 138.142 345.528 138.16 345.439C138.179 345.348 138.224 345.267 138.291 345.203L142.327 341.3L136.904 339.065C136.848 339.042 136.798 339.009 136.755 338.965C136.712 338.923 136.678 338.873 136.654 338.817C136.631 338.762 136.62 338.702 136.62 338.641C136.62 338.581 136.631 338.521 136.654 338.465C136.677 338.41 136.71 338.358 136.754 338.316C136.796 338.273 136.846 338.24 136.902 338.216C136.959 338.193 137.018 338.181 137.078 338.181C137.139 338.181 137.198 338.193 137.254 338.216L143.326 340.718C143.397 340.748 143.459 340.794 143.507 340.852C143.556 340.911 143.588 340.982 143.602 341.056C143.617 341.132 143.613 341.209 143.59 341.281C143.567 341.354 143.525 341.42 143.47 341.473L138.929 345.864C138.844 345.947 138.729 345.992 138.609 345.992Z" fill="#FFCACC"/>
<path d="M131.677 350.478C131.631 350.478 131.585 350.472 131.542 350.458C131.484 350.44 131.43 350.411 131.384 350.373C131.337 350.334 131.298 350.287 131.27 350.234C131.242 350.181 131.225 350.122 131.219 350.062C131.213 350.001 131.219 349.941 131.237 349.884L135.477 336.104C135.513 335.987 135.594 335.89 135.702 335.834C135.809 335.777 135.935 335.766 136.051 335.801C136.168 335.837 136.265 335.917 136.322 336.025C136.379 336.132 136.391 336.258 136.355 336.374L132.116 350.154C132.087 350.249 132.029 350.33 131.95 350.388C131.871 350.447 131.774 350.478 131.677 350.478Z" fill="#FFCACC"/>
</g>
</g>
<defs>
<clipPath id="clip0_9_3">
<rect width="531" height="531" fill="white"/>
</clipPath>
</defs>
</svg>
