<svg width="865" height="686" viewBox="0 0 865 686" fill="none" xmlns="http://www.w3.org/2000/svg">
<rect width="865" height="686" fill="#FFFBF9"/>
<g clip-path="url(#clip0_0_1)">
<path d="M101.306 515.339C100.566 515.373 99.8334 515.179 99.2074 514.783C98.5815 514.386 98.0925 513.807 97.8067 513.124C97.5209 512.44 97.4521 511.685 97.6096 510.961C97.7672 510.238 98.1435 509.58 98.6875 509.077C98.7786 508.714 98.8439 508.454 98.935 508.092C98.9024 508.013 98.8697 507.935 98.8367 507.856C98.0911 506.095 96.8418 504.594 95.2456 503.54C93.6494 502.487 91.7776 501.929 89.8653 501.936C87.9529 501.943 86.0853 502.515 84.4971 503.58C82.9088 504.645 81.6706 506.156 80.9382 507.923C78.0108 514.973 74.2837 522.036 73.366 529.49C72.9618 532.786 73.1323 536.126 73.8699 539.363C66.9943 524.364 63.424 508.063 63.401 491.564C63.3996 487.424 63.6296 483.286 64.09 479.172C64.4706 475.799 64.9985 472.45 65.6738 469.125C69.359 451.083 77.2713 434.173 88.7608 419.783C94.3217 416.749 98.8189 412.083 101.646 406.414C102.671 404.376 103.395 402.201 103.796 399.956C103.168 400.038 102.531 400.09 101.904 400.131C101.708 400.141 101.502 400.151 101.307 400.162L101.233 400.165C100.544 400.196 99.8602 400.027 99.2646 399.678C98.669 399.33 98.1868 398.816 97.8762 398.2C97.5655 397.584 97.4396 396.891 97.5136 396.205C97.5876 395.519 97.8583 394.868 98.2932 394.333C98.5641 393.999 98.835 393.666 99.1062 393.333C99.5176 392.819 99.9392 392.315 100.351 391.801C100.398 391.752 100.443 391.7 100.484 391.646C100.957 391.06 101.43 390.484 101.903 389.898C101.04 388.558 99.8785 387.435 98.5098 386.618C93.769 383.841 87.2285 385.764 83.8039 390.053C80.3692 394.341 79.7213 400.357 80.9142 405.715C82.0873 410.274 84.0278 414.6 86.6526 418.508C86.3954 418.837 86.1281 419.156 85.871 419.485C81.1713 425.528 77.0751 432.017 73.6413 438.86C74.4763 431.194 73.4797 423.44 70.7332 416.235C67.9498 409.52 62.7326 403.865 58.1382 398.06C52.6197 391.088 41.3034 394.131 40.3311 402.969C40.3217 403.055 40.3125 403.141 40.3036 403.226C40.986 403.611 41.654 404.02 42.3076 404.452C43.1286 405 43.7649 405.784 44.1328 406.701C44.5008 407.617 44.5835 408.623 44.3699 409.587C44.1563 410.551 43.6564 411.428 42.9358 412.104C42.2152 412.779 41.3075 413.221 40.3316 413.371L40.2316 413.386C40.4747 415.846 40.9044 418.283 41.5171 420.678C43.2922 427.362 46.4291 433.607 50.7311 439.022C55.033 444.437 60.4073 448.905 66.5169 452.146C66.918 452.352 67.3088 452.557 67.7099 452.753C64.2599 462.53 62.0959 472.714 61.2722 483.049C60.8059 489.146 60.8334 495.271 61.3545 501.364L61.3236 501.148C60.0072 494.373 56.3929 488.26 51.0912 483.841C43.2168 477.372 32.0918 474.99 23.5968 469.791C22.6939 469.211 21.6442 468.902 20.5713 468.899C19.4984 468.896 18.4472 469.201 17.5415 469.776C16.6359 470.351 15.9137 471.173 15.46 472.146C15.0063 473.118 14.8401 474.2 14.9811 475.263C14.9924 475.339 15.004 475.415 15.0158 475.49C16.2822 476.006 17.5151 476.6 18.7076 477.269C19.39 477.654 20.0581 478.063 20.7116 478.495C21.5327 479.044 22.1689 479.827 22.5369 480.744C22.9049 481.66 22.9875 482.666 22.7739 483.63C22.5604 484.594 22.0605 485.472 21.3399 486.147C20.6193 486.822 19.7116 487.264 18.7356 487.414L18.6356 487.43C18.5636 487.44 18.502 487.45 18.4301 487.46C20.5938 492.627 23.6307 497.382 27.4077 501.518C32.0736 506.525 37.713 510.526 43.9801 513.276C50.2471 516.026 57.0098 517.466 63.8535 517.51H63.8638C65.7215 525.582 68.4132 533.44 71.8955 540.957H100.587C100.69 540.638 100.783 540.309 100.875 539.99C98.2193 540.157 95.5531 539.998 92.9359 539.517C95.0647 536.905 97.1934 534.272 99.3222 531.66C99.3697 531.611 99.4143 531.56 99.4559 531.506C100.536 530.169 101.626 528.842 102.706 527.505L102.706 527.504C102.764 523.406 102.293 519.318 101.307 515.34L101.306 515.339Z" fill="#F2F2F2"/>
<path d="M439.67 541.344C439.671 541.501 439.64 541.656 439.58 541.8C439.521 541.945 439.433 542.076 439.323 542.187C439.212 542.297 439.081 542.385 438.936 542.445C438.791 542.504 438.636 542.535 438.48 542.534H1.19002C0.87441 542.534 0.57174 542.409 0.348572 542.186C0.125404 541.963 1.52588e-05 541.66 1.52588e-05 541.344C1.52588e-05 541.029 0.125404 540.726 0.348572 540.503C0.57174 540.28 0.87441 540.154 1.19002 540.154H438.48C438.636 540.154 438.791 540.184 438.936 540.244C439.081 540.304 439.212 540.391 439.323 540.502C439.433 540.612 439.521 540.744 439.58 540.888C439.64 541.033 439.671 541.188 439.67 541.344Z" fill="#CCCCCC"/>
<path d="M228.982 388.484C227.335 388.089 225.622 388.061 223.963 388.401C222.304 388.741 220.74 389.44 219.38 390.449C218.021 391.459 216.899 392.755 216.095 394.245C215.29 395.734 214.822 397.383 214.723 399.073L189.724 407.773L191.306 424.254L226.437 411.472C229.288 411.45 232.031 410.383 234.148 408.473C236.264 406.563 237.607 403.942 237.921 401.109C238.234 398.275 237.498 395.425 235.85 393.098C234.203 390.771 231.759 389.129 228.982 388.484Z" fill="#FFB6B6"/>
<path d="M188.24 436.387C178.3 443.315 160.788 446.859 136.955 446.697C135.635 446.7 134.329 446.43 133.12 445.903C131.91 445.375 130.824 444.602 129.928 443.633C123.551 436.992 123.8 421.833 123.84 420.369L116.85 394.026C116.7 393.624 112.831 382.815 116.767 375.267C117.605 373.69 118.774 372.314 120.193 371.232C121.613 370.149 123.251 369.388 124.993 368.998C139.775 365.076 153.671 404.645 155.437 409.874L176.182 406.341L190.509 405.752L205.084 397.706L213.291 417.346L192.982 432.187C191.581 433.778 189.988 435.188 188.24 436.387Z" fill="#2F2E41"/>
<path d="M228.268 654.202L243.549 654.916L253.575 596.315L231.022 595.261L228.268 654.202Z" fill="#FFB6B6"/>
<path d="M224.831 646.486L249.054 646.174L248.57 656.524L270.794 673.459C271.892 674.295 272.694 675.46 273.082 676.784C273.471 678.109 273.426 679.522 272.954 680.819C272.483 682.116 271.609 683.228 270.46 683.993C269.311 684.758 267.948 685.136 266.57 685.071L237.811 683.726L233.333 673.257L230.919 683.404L220.076 682.897L224.831 646.486Z" fill="#2F2E41"/>
<path d="M387.812 528.378L393.379 514.129L341.068 485.876L314.642 502.486L387.812 528.378Z" fill="#FFB6B6"/>
<path d="M379.402 529.165L386.859 506.116L396.509 509.887L419.666 494.251C420.809 493.479 422.17 493.092 423.549 493.148C424.928 493.203 426.253 493.698 427.331 494.56C428.408 495.422 429.182 496.606 429.539 497.939C429.896 499.272 429.818 500.685 429.316 501.97L418.838 528.786L407.486 529.678L416.327 535.212L412.376 545.323L379.402 529.165Z" fill="#2F2E41"/>
<path d="M87.2958 485.97C87.2958 485.97 93.6423 526.486 123.642 529.486C153.642 532.486 181.296 518.97 181.296 518.97L265.296 493.1C265.296 493.1 354.642 518.486 369.642 522.486C369.642 522.486 379.989 499.002 379.642 497.486C376.452 483.528 372.296 492.97 372.296 492.97L277.296 450.97C277.296 450.97 262.296 446.97 236.296 457.97C210.296 468.97 140.642 495.486 140.642 495.486L87.2958 485.97Z" fill="#2F2E41"/>
<path d="M87.6423 483.486C87.6423 483.486 82.6391 532.023 111.863 539.438C139.642 546.486 177.961 539.256 177.961 539.256L223.642 534.486C223.642 534.486 225.642 593.182 225.642 622.182C234.924 623.443 244.276 624.111 253.642 624.182C255.642 624.182 255.775 623.134 255.775 623.134L259.648 521.69C259.92 517.28 259.265 512.861 257.727 508.719C256.188 504.576 253.799 500.802 250.714 497.638C247.629 494.475 243.915 491.992 239.813 490.35C235.71 488.708 231.309 487.944 226.893 488.105C224.737 488.187 222.475 488.34 220.107 488.563C192.005 491.258 157.116 485.529 157.116 485.529L87.6423 483.486Z" fill="#2F2E41"/>
<path d="M168.701 413.075C168.701 413.075 180.564 484.818 172.547 490.546C164.529 496.273 153.534 496.295 153.534 496.295L150.978 456.683L168.701 413.075Z" fill="#2F2E41"/>
<path d="M148.913 324.963L164.776 340.037C172.149 347.043 177.036 356.262 178.696 366.296C180.357 376.331 178.699 386.633 173.976 395.64L166.393 410.1L148.913 324.963Z" fill="#2F2E41"/>
<path d="M145.366 327.498L166.86 351.98C171.577 357.353 174.501 364.064 175.222 371.177C175.55 374.407 175.418 377.668 174.831 380.861L166.731 424.895L160.642 488.486C160.642 488.486 113.639 502.728 108.828 480.736C104.017 458.745 145.366 327.498 145.366 327.498Z" fill="#FFCACC"/>
<path d="M125.191 494.463C94.2927 489.314 86.7238 488.291 86.2524 488.111L85.7801 487.931L88.8771 469.347L101.955 437.212C102.804 426.7 108.312 412.458 105.161 401.018C96.0004 367.761 110.884 320.765 117.69 317.165L136.559 304.795L143.183 310.867L154.667 326.944C164.116 369.035 170.642 408.267 170.325 410.665L164.493 451.872L157.621 467.678C136.773 477.737 150.792 498.729 125.191 494.463Z" fill="#2F2E41"/>
<path d="M181.131 464.233L229.645 451.253L233.917 450.24L236.963 449.516L240.512 448.677L240.541 448.671C241.056 448.553 241.598 448.643 242.048 448.921L260.061 470.519C260.224 470.619 260.368 470.748 260.485 470.9C260.534 470.939 260.577 470.984 260.613 471.034C260.813 471.306 260.942 471.623 260.99 471.957C261.038 472.291 261.003 472.631 260.889 472.948C260.775 473.265 260.584 473.549 260.334 473.775C260.083 474.002 259.782 474.163 259.455 474.244L187.081 490.9C186.706 490.985 186.315 490.962 185.952 490.834C185.59 490.706 185.271 490.478 185.032 490.176L184.298 489.224L180.293 469.939L180.008 467.434C179.826 467.203 179.698 466.934 179.633 466.647C179.516 466.128 179.608 465.585 179.888 465.133C180.168 464.682 180.615 464.358 181.131 464.233Z" fill="#E6E6E6"/>
<path opacity="0.17" d="M184.298 489.223L185.036 490.177C185.274 490.478 185.592 490.706 185.954 490.834C186.316 490.962 186.706 490.985 187.08 490.901L259.456 474.245C259.783 474.164 260.085 474.003 260.335 473.777C260.585 473.551 260.776 473.267 260.89 472.95C261.004 472.633 261.039 472.293 260.99 471.959C260.942 471.625 260.812 471.309 260.612 471.037C260.577 470.986 260.535 470.941 260.486 470.902L184.298 489.223Z" fill="black"/>
<path d="M240.151 448.536L238.842 356.271C238.787 355.716 238.955 355.161 239.309 354.729L248.583 335.428L249.546 334.258C249.904 333.83 250.416 333.559 250.971 333.504L252.99 333.316C253.546 333.261 254.101 333.43 254.533 333.784C254.964 334.139 255.238 334.65 255.292 335.206L257.11 432.83L257.112 432.837L258.013 442.237L259.08 453.399L259.083 453.413L260.749 470.779C260.78 471.076 260.746 471.376 260.65 471.659C260.554 471.942 260.398 472.2 260.192 472.416C259.991 472.636 259.746 472.809 259.473 472.926C259.199 473.043 258.904 473.101 258.607 473.095L257.294 473.068C256.79 473.055 256.307 472.865 255.93 472.531L255.195 471.87L254.855 471.56L240.848 449.907C240.45 449.555 240.201 449.065 240.151 448.536Z" fill="#E6E6E6"/>
<path opacity="0.17" d="M248.586 335.428L254.853 471.564L255.196 471.87L255.928 472.528C256.305 472.863 256.789 473.054 257.293 473.066L258.608 473.093C258.905 473.098 259.201 473.04 259.474 472.923C259.748 472.806 259.994 472.633 260.196 472.415C260.398 472.196 260.552 471.938 260.647 471.656C260.742 471.374 260.777 471.075 260.749 470.779L255.29 335.209C255.236 334.653 254.964 334.14 254.533 333.785C254.102 333.429 253.547 333.259 252.991 333.312L250.968 333.506C250.694 333.531 250.427 333.611 250.183 333.74C249.94 333.87 249.724 334.046 249.55 334.26L248.586 335.428Z" fill="black"/>
<path d="M249.113 340.929L240.632 361.864L241.681 424.491L250.863 437.77L249.113 340.929Z" fill="#FFCACC"/>
<path d="M186.722 463.68C186.258 463.812 185.866 464.124 185.631 464.545C185.396 464.967 185.338 465.465 185.47 465.929L189.207 481.5L192.708 480.503L188.971 464.932C188.839 464.468 188.528 464.075 188.106 463.84C187.684 463.606 187.187 463.548 186.722 463.68Z" fill="#2F2E41"/>
<path d="M193.724 461.686C193.26 461.819 192.867 462.13 192.633 462.552C192.398 462.973 192.34 463.471 192.472 463.935L193.27 466.736L196.771 465.739L195.973 462.938C195.841 462.474 195.529 462.082 195.108 461.847C194.686 461.612 194.188 461.554 193.724 461.686Z" fill="#2F2E41"/>
<path d="M200.726 459.692C200.262 459.825 199.869 460.136 199.635 460.558C199.4 460.979 199.342 461.477 199.474 461.941L200.272 464.742L203.772 463.745L202.975 460.945C202.843 460.48 202.531 460.088 202.11 459.853C201.688 459.618 201.19 459.56 200.726 459.692Z" fill="#2F2E41"/>
<path d="M207.728 457.699C207.264 457.831 206.871 458.142 206.636 458.564C206.402 458.986 206.344 459.483 206.476 459.948L207.273 462.748L210.774 461.752L209.977 458.951C209.844 458.487 209.533 458.094 209.111 457.859C208.69 457.625 208.192 457.567 207.728 457.699Z" fill="#2F2E41"/>
<path d="M214.73 455.705C214.266 455.837 213.873 456.149 213.638 456.57C213.403 456.992 213.346 457.49 213.478 457.954L214.275 460.755L217.776 459.758L216.979 456.957C216.846 456.493 216.535 456.1 216.113 455.866C215.692 455.631 215.194 455.573 214.73 455.705Z" fill="#2F2E41"/>
<path d="M221.731 453.711C221.267 453.844 220.875 454.155 220.64 454.577C220.405 454.998 220.347 455.496 220.48 455.96L221.277 458.761L224.778 457.764L223.98 454.963C223.848 454.499 223.537 454.107 223.115 453.872C222.693 453.637 222.196 453.579 221.731 453.711Z" fill="#2F2E41"/>
<path d="M228.733 451.718C228.269 451.85 227.877 452.161 227.642 452.583C227.407 453.005 227.349 453.502 227.481 453.967L228.279 456.767L231.78 455.77L230.982 452.97C230.85 452.505 230.539 452.113 230.117 451.878C229.695 451.643 229.198 451.586 228.733 451.718Z" fill="#2F2E41"/>
<path d="M235.735 449.724C235.271 449.856 234.878 450.168 234.644 450.589C234.409 451.011 234.351 451.509 234.483 451.973L235.281 454.774L238.782 453.777L237.984 450.976C237.852 450.512 237.54 450.119 237.119 449.884C236.697 449.65 236.199 449.592 235.735 449.724Z" fill="#2F2E41"/>
<path d="M195.194 468.072C194.729 468.204 194.337 468.515 194.102 468.937C193.867 469.358 193.81 469.856 193.942 470.32L194.739 473.121L198.24 472.124L197.443 469.324C197.31 468.859 196.999 468.467 196.577 468.232C196.156 467.997 195.658 467.939 195.194 468.072Z" fill="#2F2E41"/>
<path d="M202.195 466.078C201.731 466.21 201.339 466.521 201.104 466.943C200.869 467.365 200.811 467.862 200.943 468.327L201.741 471.127L205.242 470.131L204.444 467.33C204.312 466.866 204.001 466.473 203.579 466.238C203.157 466.003 202.66 465.946 202.195 466.078Z" fill="#2F2E41"/>
<path d="M209.197 464.084C208.733 464.216 208.341 464.528 208.106 464.949C207.871 465.371 207.813 465.869 207.945 466.333L208.743 469.134L212.244 468.137L211.446 465.336C211.314 464.872 211.003 464.479 210.581 464.245C210.159 464.01 209.662 463.952 209.197 464.084Z" fill="#2F2E41"/>
<path d="M216.199 462.09C215.735 462.223 215.342 462.534 215.108 462.956C214.873 463.377 214.815 463.875 214.947 464.339L215.745 467.14L219.245 466.143L218.448 463.342C218.316 462.878 218.004 462.486 217.583 462.251C217.161 462.016 216.663 461.958 216.199 462.09Z" fill="#2F2E41"/>
<path d="M223.201 460.097C222.737 460.229 222.344 460.54 222.109 460.962C221.875 461.384 221.817 461.881 221.949 462.346L222.746 465.146L226.247 464.149L225.45 461.349C225.317 460.885 225.006 460.492 224.585 460.257C224.163 460.022 223.665 459.965 223.201 460.097Z" fill="#2F2E41"/>
<path d="M230.203 458.103C229.739 458.235 229.346 458.546 229.111 458.968C228.876 459.39 228.819 459.888 228.951 460.352L229.748 463.152L233.249 462.156L232.452 459.355C232.319 458.891 232.008 458.498 231.586 458.263C231.165 458.029 230.667 457.971 230.203 458.103Z" fill="#2F2E41"/>
<path d="M237.205 456.109C236.74 456.242 236.348 456.553 236.113 456.975C235.878 457.396 235.821 457.894 235.953 458.358L236.75 461.159L240.251 460.162L239.453 457.361C239.321 456.897 239.01 456.504 238.588 456.27C238.166 456.035 237.669 455.977 237.205 456.109Z" fill="#2F2E41"/>
<path d="M196.663 474.457C196.199 474.589 195.806 474.9 195.572 475.322C195.337 475.744 195.279 476.241 195.411 476.706L196.208 479.506L199.709 478.509L198.912 475.709C198.78 475.245 198.468 474.852 198.047 474.617C197.625 474.382 197.127 474.325 196.663 474.457Z" fill="#2F2E41"/>
<path d="M203.665 472.463C203.201 472.595 202.808 472.907 202.573 473.328C202.339 473.75 202.281 474.248 202.413 474.712L203.21 477.513L206.711 476.516L205.914 473.715C205.781 473.251 205.47 472.858 205.049 472.623C204.627 472.389 204.129 472.331 203.665 472.463Z" fill="#2F2E41"/>
<path d="M210.667 470.469C210.203 470.602 209.81 470.913 209.575 471.335C209.34 471.756 209.283 472.254 209.415 472.718L210.212 475.519L213.713 474.522L212.916 471.721C212.783 471.257 212.472 470.864 212.05 470.63C211.629 470.395 211.131 470.337 210.667 470.469Z" fill="#2F2E41"/>
<path d="M217.669 468.476C217.204 468.608 216.812 468.919 216.577 469.341C216.342 469.763 216.285 470.26 216.417 470.724L217.214 473.525L220.715 472.528L219.917 469.728C219.785 469.263 219.474 468.871 219.052 468.636C218.63 468.401 218.133 468.344 217.669 468.476Z" fill="#2F2E41"/>
<path d="M224.67 466.482C224.206 466.614 223.814 466.925 223.579 467.347C223.344 467.769 223.286 468.266 223.418 468.731L224.216 471.531L227.717 470.535L226.919 467.734C226.787 467.27 226.476 466.877 226.054 466.642C225.632 466.407 225.135 466.35 224.67 466.482Z" fill="#2F2E41"/>
<path d="M231.672 464.488C231.208 464.62 230.815 464.932 230.581 465.353C230.346 465.775 230.288 466.273 230.42 466.737L231.218 469.538L234.719 468.541L233.921 465.74C233.789 465.276 233.477 464.883 233.056 464.649C232.634 464.414 232.136 464.356 231.672 464.488Z" fill="#2F2E41"/>
<path d="M238.674 462.494C238.21 462.627 237.817 462.938 237.583 463.36C237.348 463.781 237.29 464.279 237.422 464.743L238.22 467.544L241.72 466.547L240.923 463.746C240.791 463.282 240.479 462.89 240.058 462.655C239.636 462.42 239.138 462.362 238.674 462.494Z" fill="#2F2E41"/>
<path d="M218.103 450.411C217.164 449.002 215.927 447.815 214.48 446.936C213.033 446.056 211.411 445.505 209.727 445.32C208.044 445.135 206.341 445.322 204.737 445.867C203.134 446.412 201.67 447.301 200.447 448.473L176.205 437.845L166.154 451.002L200.599 465.53C202.704 467.453 205.441 468.537 208.292 468.576C211.142 468.616 213.909 467.609 216.066 465.745C218.224 463.881 219.623 461.291 219.998 458.465C220.374 455.639 219.699 452.773 218.103 450.411Z" fill="#FFB6B6"/>
<path d="M155.653 457.81C143.655 456.126 128.408 446.812 111.048 430.481C110.079 429.586 109.305 428.499 108.778 427.29C108.25 426.08 107.979 424.775 107.982 423.455C107.825 414.249 118.319 403.307 119.344 402.261L132.14 378.197C132.304 377.8 136.82 367.245 144.84 364.39C146.526 363.804 148.319 363.591 150.096 363.763C151.873 363.936 153.592 364.491 155.134 365.391C168.637 372.571 151.907 411.028 149.644 416.062L167.253 427.584L178.155 436.897L194.312 440.915L186.967 460.893L161.986 457.957C159.877 458.169 157.75 458.12 155.653 457.81Z" fill="#2F2E41"/>
<path d="M179.314 275.79C181.336 258.911 169.59 243.623 153.079 241.645C136.567 239.667 121.542 251.747 119.52 268.626C117.497 285.506 129.243 300.793 145.755 302.772C162.267 304.75 177.291 292.67 179.314 275.79Z" fill="#FFB6B6"/>
<path d="M71.0038 249.368C76.7957 244.051 80.1538 236.477 85.0227 230.235C89.8916 223.992 97.6829 218.816 104.964 221.277C109.983 222.973 113.418 227.993 114.825 233.299C116.232 238.606 115.94 244.237 115.638 249.751C116.861 238.491 125.575 228.477 136.211 226.111C146.846 223.746 158.58 229.212 163.91 239.014C167.02 236.756 170.849 235.716 174.674 236.093C178.498 236.47 182.051 238.237 184.66 241.06C189.782 246.874 189.882 256.783 184.88 262.817C179.878 268.851 170.45 270.192 164.181 265.762L161.55 267.659C162.325 272.484 159.077 277.686 154.518 278.921C150.821 279.923 145.871 279.09 144.107 282.632C142.875 285.108 144.268 288.074 145.864 290.281C147.459 292.488 149.39 294.801 149.281 297.577C149.116 301.765 144.481 304.158 140.478 304.566C130.828 305.551 120.922 299.95 116.499 291.007C116.414 290.835 116.319 290.661 116.216 290.486C113.643 286.236 111.963 281.505 111.28 276.584C110.596 271.662 110.923 266.653 112.241 261.863C112.775 259.982 112.639 258.52 111.372 257.907C105.895 255.261 89.3975 257.462 84.1082 260.603C78.8184 263.745 74.3496 268.206 69.2095 271.609C64.0691 275.012 57.7576 277.356 51.9631 275.567C47.3222 274.135 43.6988 270.207 41.4817 265.727C39.2649 261.247 38.2828 256.217 37.4599 251.236C47.2249 258.554 61.8873 257.737 71.0038 249.368Z" fill="#2F2E41"/>
<path d="M66.4503 449.706L66.4654 449.686L66.4503 449.727V449.706Z" fill="#2F2E41"/>
</g>
<defs>
<clipPath id="clip0_0_1">
<rect width="864.67" height="685.078" fill="white"/>
</clipPath>
</defs>
</svg>
